{"title":"Bodyguard (2011) Hindi 1CD DVDRip x264 CiN3M4@Mastitorrents","uid":6731925,"size":751871510,"categoryP":"video","categoryS":"movies","magnet":"?xt=urn:btih:a80f336f57545edb3d9438d11627b7ea0f8ca856&amp;dn=Bodyguard+%282011%29+Hindi+1CD+DVDRip+x264+CiN3M4%40Mastitorrents&amp;tr=udp%3A%2F%2Ftracker.openbittorrent.com%3A80&amp;tr=udp%3A%2F%2Fopen.demonii.com%3A1337&amp;tr=udp%3A%2F%2Ftracker.coppersurfer.tk%3A6969&amp;tr=udp%3A%2F%2Fexodus.desync.com%3A6969","seeders":0,"leechers":0,"uploader":"HDvideos","files":-1,"time":1318191579,"description":"mastitorrents.com\n  &lt;a href=&quot;\nhttp://mastitorrents.com/forums/index.php&quot; rel=&quot;nofollow&quot; target=&quot;_NEW&quot;&gt;\nhttp://mastitorrents.com/forums/index.php&lt;/a&gt;\n\nBodyguard (2011) Hindi 1CD DVDRip x264 CiN3M4@Mastitorrents\n &lt;a href=&quot;\nhttp://thepiratebay.se/user/HDvideos/0/7&quot; rel=&quot;nofollow&quot; target=&quot;_NEW&quot;&gt;\nhttp://thepiratebay.se/user/HDvideos/0/7&lt;/a&gt;\n\nComplete name                    : bodyguard.2011.cin3m4.mkv\nFormat                           : Matroska\nFormat version                   : Version 2\nFile size                        : 693 MiB\nDuration                         : 2h 10mn\nOverall bit rate mode            : Variable\nOverall bit rate                 : 741 Kbps\nEncoded date                     : UTC 2011-10-09 17:01:58\nWriting application              : mkvmerge v4.9.1 ('Ich will') built on Jul 11 2011 23:53:15\nWriting library                  : libebml v1.2.1 + libmatroska v1.1.1\n\nVideo\nID                               : 1\nFormat                           : AVC\nFormat/Info                      : Advanced Video Codec\nFormat profile                   : &lt;a class=&quot;__cf_email__&quot; href=&quot;/cdn-cgi/l/email-protection&quot; data-cfemail=&quot;abe3c2ccc3ebe798859b&quot;&gt;[email&amp;#160;protected]&lt;/a&gt;&lt;script data-cfhash='f9e31' type=&quot;text/javascript&quot;&gt;\n/* &lt;![CDATA[ */!function(){try{var t=&quot;currentScript&quot;in document?document.currentScript:function(){for(var t=document.getElementsByTagName(&quot;script&quot;),e=t.length;e--;)if(t[e].getAttribute(&quot;data-cfhash&quot;))return t[e]}();if(t&amp;&amp;t.previousSibling){var e,r,n,i,c=t.previousSibling,a=c.getAttribute(&quot;data-cfemail&quot;);if(a){for(e=&quot;&quot;,r=parseInt(a.substr(0,2),16),n=2;a.length-n;n+=2)i=parseInt(a.substr(n,2),16)^r,e+=String.fromCharCode(i);e=document.createTextNode(e),c.parentNode.replaceChild(e,c)}t.parentNode.removeChild(t);}}catch(u){}}()/* ]]&gt; */&lt;/script&gt;\nFormat settings, CABAC           : Yes\nFormat settings, ReFrames        : 4 frames\nCodec ID                         : V_MPEG4/ISO/AVC\nDuration                         : 2h 10mn\nBit rate                         : 649 Kbps\nWidth                            : 640 pixels\nHeight                           : 272 pixels\nDisplay aspect ratio             : 2.35:1\nFrame rate                       : 29.970 fps\nColor space                      : YUV\nChroma subsampling               : 4:2:0\nBit depth                        : 8 bits\nScan type                        : Progressive\nBits/(Pixel*Frame)               : 0.124\nStream size                      : 595 MiB (86%)\nWriting library                  : x264 core 116 r2074 2641b9e\nLanguage                         : English\n\nAudio\nID                               : 2\nFormat                           : MPEG Audio\nFormat version                   : Version 1\nFormat profile                   : Layer 3\nMode                             : Joint stereo\nMode extension                   : MS Stereo\nCodec ID                         : A_MPEG/L3\nCodec ID/Hint                    : MP3\nDuration                         : 2h 10mn\nBit rate mode                    : Variable\nBit rate                         : 90.2 Kbps\nNominal bit rate                 : 96.0 Kbps\nChannel(s)                       : 2 channels\nSampling rate                    : 32.0 KHz\nCompression mode                 : Lossy\nStream size                      : 84.3 MiB (12%)\nWriting library                  : LAME3.98r\n\nCredits: CiN3M4\n\nRecommended Player:VLC Player","torrent":{"xt":"urn:btih:a80f336f57545edb3d9438d11627b7ea0f8ca856","amp;dn":"Bodyguard+%282011%29+Hindi+1CD+DVDRip+x264+CiN3M4%40Mastitorrents","amp;tr":["udp%3A%2F%2Ftracker.openbittorrent.com%3A80","udp%3A%2F%2Fopen.demonii.com%3A1337","udp%3A%2F%2Ftracker.coppersurfer.tk%3A6969","udp%3A%2F%2Fexodus.desync.com%3A6969"],"infoHash":"a80f336f57545edb3d9438d11627b7ea0f8ca856","infoHashBuffer":{"type":"Buffer","data":[168,15,51,111,87,84,94,219,61,148,56,209,22,39,183,234,15,140,168,86]},"announce":[],"urlList":[]}}